:SAMPLES-PER-SECOND 24
:FULLY-SPECIFIED
:DEGREES
163
root  4.21275 40.7412 30.6024 -179.843 -65.3301 170.014
RightUpLeg  -2.68291 -8.89615 -21.5475
RightLeg  22.3113 5.93864 2.45919
RightFoot  8.1071 -2.06633 12.2646
RightToes  -1.74623e-010 0 -2.59999e-017
Spine  3.49892 -2.7957 -10.8839
Spine1  16.3627 -5.22295 4.61381
HEad  -14.9158 -33.1137 14.5466
LeftShoulder1  1.94786 -3.9602 -19.6147
LeftArm  21.7675 18.9277 -44.3592
LeftForeArm  69.7971 -79.2931 -78.8148
LeftHand  0.418412 9.73593 11.9345
RightShoulder  2.13283 3.7445 23.2791
RightArm  -7.887 -12.7348 31.0005
RightForeArm  48.555 77.9966 63.6537
RightHand  -0.0280842 -5.86474 -0.880365
LeftUpLeg  5.6439 10.8532 12.8591
LeftLeg  22.6971 1.07286 0.817638
LeftFoot  10.0214 2.7602 -14.8841
LeftToes  -6.27559e-011 -2.10356e-011 8.24929e-012
164
root  4.19701 40.1394 30.2615 178.901 -63.6828 171.179
RightUpLeg  -4.0589 -8.9823 -21.2879
RightLeg  22.122 7.12494 2.96123
RightFoot  8.65932 -2.85138 16.4527
RightToes  -1.74623e-010 0 -2.59999e-017
Spine  4.88613 -2.71779 -9.96629
Spine1  15.1366 -5.13632 4.55731
HEad  -16.0991 -32.1163 14.0142
LeftShoulder1  1.91337 -3.95297 -19.1466
LeftArm  20.0478 19.0704 -42.724
LeftForeArm  68.645 -79.2264 -80.0141
LeftHand  0.468617 10.1803 12.0877
RightShoulder  1.96501 3.4579 21.9974
RightArm  -10.5809 -5.73077 29.9207
RightForeArm  58.4759 78.7579 72.8475
RightHand  -0.0646805 -4.42222 -4.96994
LeftUpLeg  5.40981 10.728 12.7196
LeftLeg  27.6583 -1.31845 -0.424048
LeftFoot  6.74175 2.41246 -15.31
LeftToes  -6.27559e-011 -2.10356e-011 8.24929e-012
165
root  4.24622 38.9068 29.9031 178.342 -61.972 171.675
RightUpLeg  -7.09725 -9.99197 -20.93
RightLeg  27.9249 8.44767 4.61279
RightFoot  1.67023 -1.79272 15.7302
RightToes  -1.74623e-010 0 -2.59999e-017
Spine  6.363 -2.41541 -9.76521
Spine1  13.8828 -5.00099 4.5982
HEad  -16.9827 -31.0866 13.2863
LeftShoulder1  1.91303 -4.08998 -18.6436
LeftArm  17.6632 17.6637 -41.6225
LeftForeArm  68.2872 -79.2085 -80.1414
LeftHand  0.384645 10.0185 10.484
RightShoulder  1.86066 3.25063 21.2761
RightArm  -15.2766 2.44104 28.6553
RightForeArm  56.4037 78.5998 69.7823
RightHand  -0.151551 -3.67988 -9.36053
LeftUpLeg  4.69723 11.2495 12.7806
LeftLeg  33.1413 1.14219 1.17433
LeftFoot  -0.873012 1.60662 -17.3686
LeftToes  -6.27559e-011 -2.10356e-011 8.24929e-012
166
root  4.33476 37.4055 29.6658 177.1 -59.8969 172.658
RightUpLeg  -11.3053 -10.9489 -20.1964
RightLeg  37.1533 8.7161 6.78633
RightFoot  -8.23063 -0.377374 12.0793
RightToes  -1.74623e-010 0 -2.59999e-017
Spine  6.84666 -1.91032 -9.57874
Spine1  15.5262 -4.91246 4.91271
HEad  -20.1684 -30.1486 13.9149
LeftShoulder1  1.88046 -3.73907 -19.4811
LeftArm  15.1135 11.7426 -40.7095
LeftForeArm  62.6062 -78.9705 -75.7905
LeftHand  0.500262 10.7129 11.5737
RightShoulder  2.11154 3.74393 22.9383
RightArm  -22.5288 13.5686 23.6432
RightForeArm  45.6126 77.3255 56.5317
RightHand  -0.0828423 -4.76374 -12.6824
LeftUpLeg  4.49763 10.4489 12.981
LeftLeg  38.0117 4.22379 3.9117
LeftFoot  -11.6488 0.0165924 -20.0272
LeftToes  -6.27559e-011 -2.10356e-011 8.24929e-012
167
root  4.34072 36.3915 29.6077 175.111 -58.3477 174.1
RightUpLeg  -14.0754 -11.6762 -19.6858
RightLeg  43.5661 8.9967 8.77856
RightFoot  -12.1176 -0.00708325 10.1693
RightToes  -1.74623e-010 0 -2.59999e-017
Spine  6.79103 -1.52401 -8.80536
Spine1  18.3362 -4.90474 5.11133
HEad  -23.3018 -29.5373 14.9054
LeftShoulder1  1.86431 -3.20802 -21.4085
LeftArm  13.7666 3.01159 -41.4245
LeftForeArm  51.9099 -78.2509 -65.6968
LeftHand  0.88192 11.8633 16.2147
RightShoulder  2.68323 4.73862 26.5331
RightArm  -29.9472 22.1735 17.8005
RightForeArm  41.1539 75.5685 44.8471
RightHand  0.134539 -6.50347 -15.7389
LeftUpLeg  5.13106 9.42741 13.8917
LeftLeg  41.0446 3.77377 3.91169
LeftFoot  -18.3833 -1.2496 -21.9092
LeftToes  -6.27559e-011 -2.10356e-011 8.24929e-012
168
root  4.13776 36.566 29.6422 174.545 -58.4109 174.284
RightUpLeg  -12.7526 -12.4381 -20.1514
RightLeg  42.2949 9.77672 9.11969
RightFoot  -11.1203 -0.0896136 10.2281
RightToes  -1.74623e-010 0 -2.59999e-017
Spine  6.23675 -1.60663 -8.63851
Spine1  19.5113 -5.07153 5.20214
HEad  -22.3858 -29.758 14.9511
LeftShoulder1  1.88937 -3.12609 -22.1724
LeftArm  14.4143 -2.49444 -45.6123
LeftForeArm  48.4792 -77.7761 -60.051
LeftHand  0.912839 11.4585 17.7557
RightShoulder  3.0693 5.29728 28.9478
RightArm  -31.6725 21.2814 19.1607
RightForeArm  47.015 75.86 44.4006
RightHand  0.477625 -8.38053 -18.9924
LeftUpLeg  5.94003 10.6353 14.9289
LeftLeg  40.8961 1.91763 2.18935
LeftFoot  -17.4998 -1.10424 -22.4025
LeftToes  -6.27559e-011 -2.10356e-011 8.24929e-012
169
root  3.8065 37.8174 29.8234 176.097 -59.7066 173.112
RightUpLeg  -8.80556 -12.3094 -21.0044
RightLeg  34.4128 10.1357 7.15852
RightFoot  -5.78936 -0.647651 12.4945
RightToes  -1.74623e-010 0 -2.59999e-017
Spine  5.24553 -2.17536 -9.83669
Spine1  18.7611 -5.71682 6.17198
HEad  -18.3522 -30.975 14.3673
LeftShoulder1  1.89213 -3.23913 -21.7109
LeftArm  17.3811 -3.79772 -51.5318
LeftForeArm  52.2666 -78.0966 -62.1188
LeftHand  0.5942 10.2593 14.7259
RightShoulder  3.10947 5.31805 29.3286
RightArm  -27.5872 13.0424 25.6234
RightForeArm  52.0703 76.9615 49.5893
RightHand  0.664484 -9.21876 -20.4477
LeftUpLeg  5.82941 13.0526 14.9491
LeftLeg  38.0704 -0.0490018 0.353116
LeftFoot  -8.44322 0.570122 -20.3607
LeftToes  -6.27559e-011 -2.10356e-011 8.24929e-012
170
root  3.46345 39.3105 30.2347 177.591 -61.0341 172.455
RightUpLeg  -5.6869 -11.0997 -21.3075
RightLeg  25.601 8.26096 4.09052
RightFoot  5.09464 -2.26961 15.9112
RightToes  -1.74623e-010 0 -2.59999e-017
Spine  4.76924 -2.94533 -10.9709
Spine1  17.0092 -6.72073 8.09788
HEad  -14.8943 -32.1621 13.578
LeftShoulder1  1.87813 -3.2774 -21.3227
LeftArm  22.0894 -4.06482 -56.5697
LeftForeArm  58.7931 -78.6723 -68.0451
LeftHand  0.322125 8.73504 12.0696
RightShoulder  3.03122 5.18658 28.953
RightArm  -21.1227 4.24645 30.3955
RightForeArm  44.2267 75.7166 44.7326
RightHand  0.294866 -7.2963 -18.4441
LeftUpLeg  5.42997 14.105 14.3599
LeftLeg  33.7307 -3.08197 -1.83755
LeftFoot  2.76663 2.22284 -17.879
LeftToes  -6.27559e-011 -2.10356e-011 8.24929e-012
171
root  3.13955 40.3056 30.7112 178.298 -62.0393 172.331
RightUpLeg  -4.22378 -10.3059 -21.352
RightLeg  20.2773 4.94483 1.80634
RightFoot  13.4151 -3.13491 14.7483
RightToes  -1.74623e-010 0 -2.59999e-017
Spine  4.89226 -3.62434 -11.6281
Spine1  15.0616 -7.60836 9.61509
HEad  -12.6296 -32.5098 12.6921
LeftShoulder1  1.86419 -3.39326 -20.6144
LeftArm  26.9602 -5.09059 -60.4443
LeftForeArm  67.0746 -79.1781 -75.1095
LeftHand  0.0700839 6.44605 9.96108
RightShoulder  2.92719 5.09128 28.1068
RightArm  -14.4889 -2.97245 33.0517
RightForeArm  29.6681 71.5201 32.9412
RightHand  -0.151451 -4.13003 -13.1543
LeftUpLeg  6.0401 14.037 13.9505
LeftLeg  28.7939 -4.08269 -2.09182
LeftFoot  5.93496 2.61636 -17.3367
LeftToes  -6.27559e-011 -2.10356e-011 8.24929e-012
